<mxfile host="app.diagrams.net" agent="Mozilla/5.0 (Windows NT 10.0; Win64; x64) AppleWebKit/537.36 (KHTML, like Gecko) Chrome/109.0.0.0 Safari/537.36" version="28.2.7">
  <diagram name="1 oldal" id="uVjVHB4zc-ul7sOCtiRL">
    <mxGraphModel dx="1426" dy="801" grid="1" gridSize="10" guides="1" tooltips="1" connect="1" arrows="1" fold="1" page="1" pageScale="1" pageWidth="827" pageHeight="1169" math="0" shadow="0">
      <root>
        <mxCell id="0" />
        <mxCell id="1" parent="0" />
        <mxCell id="UaQPZbpZhwbbAl6UrSpT-1" value="E00XC3_kurzusfelvétel" style="ellipse;whiteSpace=wrap;html=1;" vertex="1" parent="1">
          <mxGeometry x="346" y="30" width="136" height="100" as="geometry" />
        </mxCell>
        <mxCell id="UaQPZbpZhwbbAl6UrSpT-2" value="hallgató" style="ellipse;whiteSpace=wrap;html=1;" vertex="1" parent="1">
          <mxGeometry x="180" y="170" width="100" height="70" as="geometry" />
        </mxCell>
        <mxCell id="UaQPZbpZhwbbAl6UrSpT-3" value="kurzusok" style="ellipse;whiteSpace=wrap;html=1;" vertex="1" parent="1">
          <mxGeometry x="540" y="170" width="100" height="70" as="geometry" />
        </mxCell>
        <mxCell id="UaQPZbpZhwbbAl6UrSpT-4" value="" style="endArrow=none;html=1;rounded=0;entryX=0.5;entryY=0;entryDx=0;entryDy=0;exitX=0.5;exitY=1;exitDx=0;exitDy=0;" edge="1" parent="1" source="UaQPZbpZhwbbAl6UrSpT-1" target="UaQPZbpZhwbbAl6UrSpT-2">
          <mxGeometry width="50" height="50" relative="1" as="geometry">
            <mxPoint x="390" y="440" as="sourcePoint" />
            <mxPoint x="440" y="390" as="targetPoint" />
          </mxGeometry>
        </mxCell>
        <mxCell id="UaQPZbpZhwbbAl6UrSpT-5" value="" style="endArrow=none;html=1;rounded=0;entryX=0.5;entryY=0;entryDx=0;entryDy=0;exitX=0.5;exitY=1;exitDx=0;exitDy=0;" edge="1" parent="1" source="UaQPZbpZhwbbAl6UrSpT-1" target="UaQPZbpZhwbbAl6UrSpT-3">
          <mxGeometry width="50" height="50" relative="1" as="geometry">
            <mxPoint x="390" y="440" as="sourcePoint" />
            <mxPoint x="440" y="390" as="targetPoint" />
          </mxGeometry>
        </mxCell>
        <mxCell id="UaQPZbpZhwbbAl6UrSpT-6" value="hnév" style="ellipse;whiteSpace=wrap;html=1;" vertex="1" parent="1">
          <mxGeometry x="50" y="260" width="100" height="70" as="geometry" />
        </mxCell>
        <mxCell id="UaQPZbpZhwbbAl6UrSpT-7" value="szülév" style="ellipse;whiteSpace=wrap;html=1;" vertex="1" parent="1">
          <mxGeometry x="180" y="260" width="100" height="70" as="geometry" />
        </mxCell>
        <mxCell id="UaQPZbpZhwbbAl6UrSpT-8" value="szak" style="ellipse;whiteSpace=wrap;html=1;" vertex="1" parent="1">
          <mxGeometry x="313.5" y="260" width="100" height="70" as="geometry" />
        </mxCell>
        <mxCell id="UaQPZbpZhwbbAl6UrSpT-9" value="" style="endArrow=none;html=1;rounded=0;entryX=0.5;entryY=1;entryDx=0;entryDy=0;exitX=0.5;exitY=0;exitDx=0;exitDy=0;" edge="1" parent="1" source="UaQPZbpZhwbbAl6UrSpT-6" target="UaQPZbpZhwbbAl6UrSpT-2">
          <mxGeometry width="50" height="50" relative="1" as="geometry">
            <mxPoint x="390" y="440" as="sourcePoint" />
            <mxPoint x="440" y="390" as="targetPoint" />
          </mxGeometry>
        </mxCell>
        <mxCell id="UaQPZbpZhwbbAl6UrSpT-10" value="" style="endArrow=none;html=1;rounded=0;entryX=0.5;entryY=0;entryDx=0;entryDy=0;exitX=0.5;exitY=1;exitDx=0;exitDy=0;" edge="1" parent="1" source="UaQPZbpZhwbbAl6UrSpT-2" target="UaQPZbpZhwbbAl6UrSpT-7">
          <mxGeometry width="50" height="50" relative="1" as="geometry">
            <mxPoint x="390" y="440" as="sourcePoint" />
            <mxPoint x="440" y="390" as="targetPoint" />
          </mxGeometry>
        </mxCell>
        <mxCell id="UaQPZbpZhwbbAl6UrSpT-11" value="" style="endArrow=none;html=1;rounded=0;entryX=0.5;entryY=0;entryDx=0;entryDy=0;exitX=0.5;exitY=1;exitDx=0;exitDy=0;" edge="1" parent="1" source="UaQPZbpZhwbbAl6UrSpT-2" target="UaQPZbpZhwbbAl6UrSpT-8">
          <mxGeometry width="50" height="50" relative="1" as="geometry">
            <mxPoint x="390" y="440" as="sourcePoint" />
            <mxPoint x="440" y="390" as="targetPoint" />
          </mxGeometry>
        </mxCell>
        <mxCell id="UaQPZbpZhwbbAl6UrSpT-12" value="" style="endArrow=none;html=1;rounded=0;exitX=0.5;exitY=1;exitDx=0;exitDy=0;entryX=0.5;entryY=0;entryDx=0;entryDy=0;" edge="1" parent="1" source="UaQPZbpZhwbbAl6UrSpT-6" target="UaQPZbpZhwbbAl6UrSpT-13">
          <mxGeometry width="50" height="50" relative="1" as="geometry">
            <mxPoint x="390" y="440" as="sourcePoint" />
            <mxPoint x="140" y="380" as="targetPoint" />
          </mxGeometry>
        </mxCell>
        <mxCell id="UaQPZbpZhwbbAl6UrSpT-13" value="" style="whiteSpace=wrap;html=1;aspect=fixed;" vertex="1" parent="1">
          <mxGeometry x="80" y="360" width="40" height="40" as="geometry" />
        </mxCell>
        <mxCell id="UaQPZbpZhwbbAl6UrSpT-14" value="" style="whiteSpace=wrap;html=1;aspect=fixed;" vertex="1" parent="1">
          <mxGeometry x="210" y="360" width="40" height="40" as="geometry" />
        </mxCell>
        <mxCell id="UaQPZbpZhwbbAl6UrSpT-15" value="" style="endArrow=none;html=1;rounded=0;entryX=0.5;entryY=1;entryDx=0;entryDy=0;exitX=0.5;exitY=0;exitDx=0;exitDy=0;" edge="1" parent="1" source="UaQPZbpZhwbbAl6UrSpT-14" target="UaQPZbpZhwbbAl6UrSpT-7">
          <mxGeometry width="50" height="50" relative="1" as="geometry">
            <mxPoint x="390" y="440" as="sourcePoint" />
            <mxPoint x="440" y="390" as="targetPoint" />
          </mxGeometry>
        </mxCell>
        <mxCell id="UaQPZbpZhwbbAl6UrSpT-16" value="" style="whiteSpace=wrap;html=1;aspect=fixed;" vertex="1" parent="1">
          <mxGeometry x="343.5" y="360" width="40" height="40" as="geometry" />
        </mxCell>
        <mxCell id="UaQPZbpZhwbbAl6UrSpT-17" value="" style="endArrow=none;html=1;rounded=0;entryX=0.5;entryY=1;entryDx=0;entryDy=0;exitX=0.5;exitY=0;exitDx=0;exitDy=0;" edge="1" parent="1" source="UaQPZbpZhwbbAl6UrSpT-16" target="UaQPZbpZhwbbAl6UrSpT-8">
          <mxGeometry width="50" height="50" relative="1" as="geometry">
            <mxPoint x="390" y="440" as="sourcePoint" />
            <mxPoint x="440" y="390" as="targetPoint" />
          </mxGeometry>
        </mxCell>
        <mxCell id="UaQPZbpZhwbbAl6UrSpT-19" value="" style="endArrow=none;html=1;rounded=0;entryX=0;entryY=0;entryDx=0;entryDy=0;exitX=1;exitY=1;exitDx=0;exitDy=0;" edge="1" parent="1" source="UaQPZbpZhwbbAl6UrSpT-8" target="UaQPZbpZhwbbAl6UrSpT-29">
          <mxGeometry width="50" height="50" relative="1" as="geometry">
            <mxPoint x="390" y="440" as="sourcePoint" />
            <mxPoint x="426.5" y="342.5" as="targetPoint" />
          </mxGeometry>
        </mxCell>
        <mxCell id="UaQPZbpZhwbbAl6UrSpT-20" value="" style="ellipse;whiteSpace=wrap;html=1;" vertex="1" parent="1">
          <mxGeometry x="540" y="260" width="100" height="70" as="geometry" />
        </mxCell>
        <mxCell id="UaQPZbpZhwbbAl6UrSpT-23" value="kurzus" style="ellipse;whiteSpace=wrap;html=1;" vertex="1" parent="1">
          <mxGeometry x="550" y="265" width="80" height="60" as="geometry" />
        </mxCell>
        <mxCell id="UaQPZbpZhwbbAl6UrSpT-24" value="" style="endArrow=none;html=1;rounded=0;entryX=0.5;entryY=1;entryDx=0;entryDy=0;exitX=0.5;exitY=0;exitDx=0;exitDy=0;" edge="1" parent="1" source="UaQPZbpZhwbbAl6UrSpT-20" target="UaQPZbpZhwbbAl6UrSpT-3">
          <mxGeometry width="50" height="50" relative="1" as="geometry">
            <mxPoint x="390" y="440" as="sourcePoint" />
            <mxPoint x="440" y="390" as="targetPoint" />
          </mxGeometry>
        </mxCell>
        <mxCell id="UaQPZbpZhwbbAl6UrSpT-26" value="jóváhagyás" style="rhombus;whiteSpace=wrap;html=1;" vertex="1" parent="1">
          <mxGeometry x="770" y="260" width="70" height="70" as="geometry" />
        </mxCell>
        <mxCell id="UaQPZbpZhwbbAl6UrSpT-27" value="id" style="rhombus;whiteSpace=wrap;html=1;" vertex="1" parent="1">
          <mxGeometry x="770" y="170" width="70" height="70" as="geometry" />
        </mxCell>
        <mxCell id="UaQPZbpZhwbbAl6UrSpT-28" value="nyelv" style="rhombus;whiteSpace=wrap;html=1;" vertex="1" parent="1">
          <mxGeometry x="770" y="350" width="70" height="70" as="geometry" />
        </mxCell>
        <mxCell id="UaQPZbpZhwbbAl6UrSpT-29" value="évf" style="rhombus;whiteSpace=wrap;html=1;" vertex="1" parent="1">
          <mxGeometry x="412" y="320" width="70" height="70" as="geometry" />
        </mxCell>
        <mxCell id="UaQPZbpZhwbbAl6UrSpT-30" value="" style="endArrow=none;html=1;rounded=0;exitX=1;exitY=0.5;exitDx=0;exitDy=0;entryX=0;entryY=0.5;entryDx=0;entryDy=0;" edge="1" parent="1" source="UaQPZbpZhwbbAl6UrSpT-20" target="UaQPZbpZhwbbAl6UrSpT-27">
          <mxGeometry width="50" height="50" relative="1" as="geometry">
            <mxPoint x="390" y="440" as="sourcePoint" />
            <mxPoint x="440" y="390" as="targetPoint" />
          </mxGeometry>
        </mxCell>
        <mxCell id="UaQPZbpZhwbbAl6UrSpT-31" value="" style="endArrow=none;html=1;rounded=0;entryX=1;entryY=0.5;entryDx=0;entryDy=0;exitX=0;exitY=0.5;exitDx=0;exitDy=0;" edge="1" parent="1" source="UaQPZbpZhwbbAl6UrSpT-26" target="UaQPZbpZhwbbAl6UrSpT-20">
          <mxGeometry width="50" height="50" relative="1" as="geometry">
            <mxPoint x="390" y="440" as="sourcePoint" />
            <mxPoint x="440" y="390" as="targetPoint" />
          </mxGeometry>
        </mxCell>
        <mxCell id="UaQPZbpZhwbbAl6UrSpT-32" value="" style="endArrow=none;html=1;rounded=0;entryX=1;entryY=0.5;entryDx=0;entryDy=0;exitX=0;exitY=0.5;exitDx=0;exitDy=0;" edge="1" parent="1" source="UaQPZbpZhwbbAl6UrSpT-28" target="UaQPZbpZhwbbAl6UrSpT-20">
          <mxGeometry width="50" height="50" relative="1" as="geometry">
            <mxPoint x="390" y="440" as="sourcePoint" />
            <mxPoint x="440" y="390" as="targetPoint" />
          </mxGeometry>
        </mxCell>
        <mxCell id="UaQPZbpZhwbbAl6UrSpT-33" value="kurzusnév" style="ellipse;whiteSpace=wrap;html=1;" vertex="1" parent="1">
          <mxGeometry x="240" y="585" width="100" height="70" as="geometry" />
        </mxCell>
        <mxCell id="UaQPZbpZhwbbAl6UrSpT-34" value="" style="endArrow=none;html=1;rounded=0;exitX=0.5;exitY=1;exitDx=0;exitDy=0;entryX=0.5;entryY=0;entryDx=0;entryDy=0;" edge="1" parent="1" source="UaQPZbpZhwbbAl6UrSpT-33" target="UaQPZbpZhwbbAl6UrSpT-35">
          <mxGeometry width="50" height="50" relative="1" as="geometry">
            <mxPoint x="580" y="765" as="sourcePoint" />
            <mxPoint x="330" y="705" as="targetPoint" />
          </mxGeometry>
        </mxCell>
        <mxCell id="UaQPZbpZhwbbAl6UrSpT-35" value="" style="whiteSpace=wrap;html=1;aspect=fixed;" vertex="1" parent="1">
          <mxGeometry x="270" y="685" width="40" height="40" as="geometry" />
        </mxCell>
        <mxCell id="UaQPZbpZhwbbAl6UrSpT-36" value="" style="endArrow=none;html=1;rounded=0;entryX=0.5;entryY=1;entryDx=0;entryDy=0;exitX=0.5;exitY=0;exitDx=0;exitDy=0;" edge="1" parent="1" source="UaQPZbpZhwbbAl6UrSpT-33" target="UaQPZbpZhwbbAl6UrSpT-20">
          <mxGeometry width="50" height="50" relative="1" as="geometry">
            <mxPoint x="390" y="440" as="sourcePoint" />
            <mxPoint x="440" y="390" as="targetPoint" />
          </mxGeometry>
        </mxCell>
        <mxCell id="UaQPZbpZhwbbAl6UrSpT-37" value="kredit" style="ellipse;whiteSpace=wrap;html=1;" vertex="1" parent="1">
          <mxGeometry x="360" y="585" width="100" height="70" as="geometry" />
        </mxCell>
        <mxCell id="UaQPZbpZhwbbAl6UrSpT-38" value="" style="endArrow=none;html=1;rounded=0;exitX=0.5;exitY=1;exitDx=0;exitDy=0;entryX=0.5;entryY=0;entryDx=0;entryDy=0;" edge="1" parent="1" source="UaQPZbpZhwbbAl6UrSpT-37" target="UaQPZbpZhwbbAl6UrSpT-39">
          <mxGeometry width="50" height="50" relative="1" as="geometry">
            <mxPoint x="700" y="765" as="sourcePoint" />
            <mxPoint x="450" y="705" as="targetPoint" />
          </mxGeometry>
        </mxCell>
        <mxCell id="UaQPZbpZhwbbAl6UrSpT-39" value="" style="whiteSpace=wrap;html=1;aspect=fixed;" vertex="1" parent="1">
          <mxGeometry x="390" y="685" width="40" height="40" as="geometry" />
        </mxCell>
        <mxCell id="UaQPZbpZhwbbAl6UrSpT-40" value="hely" style="ellipse;whiteSpace=wrap;html=1;" vertex="1" parent="1">
          <mxGeometry x="480" y="585" width="100" height="70" as="geometry" />
        </mxCell>
        <mxCell id="UaQPZbpZhwbbAl6UrSpT-41" value="" style="endArrow=none;html=1;rounded=0;exitX=0.5;exitY=1;exitDx=0;exitDy=0;entryX=0.5;entryY=0;entryDx=0;entryDy=0;" edge="1" parent="1" source="UaQPZbpZhwbbAl6UrSpT-40" target="UaQPZbpZhwbbAl6UrSpT-42">
          <mxGeometry width="50" height="50" relative="1" as="geometry">
            <mxPoint x="820" y="765" as="sourcePoint" />
            <mxPoint x="570" y="705" as="targetPoint" />
          </mxGeometry>
        </mxCell>
        <mxCell id="UaQPZbpZhwbbAl6UrSpT-42" value="" style="whiteSpace=wrap;html=1;aspect=fixed;" vertex="1" parent="1">
          <mxGeometry x="510" y="685" width="40" height="40" as="geometry" />
        </mxCell>
        <mxCell id="UaQPZbpZhwbbAl6UrSpT-43" value="időpont" style="ellipse;whiteSpace=wrap;html=1;" vertex="1" parent="1">
          <mxGeometry x="600" y="585" width="100" height="70" as="geometry" />
        </mxCell>
        <mxCell id="UaQPZbpZhwbbAl6UrSpT-44" value="" style="endArrow=none;html=1;rounded=0;exitX=0.5;exitY=1;exitDx=0;exitDy=0;entryX=0.5;entryY=0;entryDx=0;entryDy=0;" edge="1" parent="1" source="UaQPZbpZhwbbAl6UrSpT-43" target="UaQPZbpZhwbbAl6UrSpT-45">
          <mxGeometry width="50" height="50" relative="1" as="geometry">
            <mxPoint x="940" y="765" as="sourcePoint" />
            <mxPoint x="690" y="705" as="targetPoint" />
          </mxGeometry>
        </mxCell>
        <mxCell id="UaQPZbpZhwbbAl6UrSpT-45" value="" style="whiteSpace=wrap;html=1;aspect=fixed;" vertex="1" parent="1">
          <mxGeometry x="630" y="685" width="40" height="40" as="geometry" />
        </mxCell>
        <mxCell id="UaQPZbpZhwbbAl6UrSpT-46" value="oktató" style="ellipse;whiteSpace=wrap;html=1;" vertex="1" parent="1">
          <mxGeometry x="720" y="585" width="100" height="70" as="geometry" />
        </mxCell>
        <mxCell id="UaQPZbpZhwbbAl6UrSpT-47" value="" style="endArrow=none;html=1;rounded=0;exitX=0.5;exitY=1;exitDx=0;exitDy=0;entryX=0.5;entryY=0;entryDx=0;entryDy=0;" edge="1" parent="1" source="UaQPZbpZhwbbAl6UrSpT-46" target="UaQPZbpZhwbbAl6UrSpT-48">
          <mxGeometry width="50" height="50" relative="1" as="geometry">
            <mxPoint x="1060" y="765" as="sourcePoint" />
            <mxPoint x="810" y="705" as="targetPoint" />
          </mxGeometry>
        </mxCell>
        <mxCell id="UaQPZbpZhwbbAl6UrSpT-48" value="" style="whiteSpace=wrap;html=1;aspect=fixed;" vertex="1" parent="1">
          <mxGeometry x="750" y="685" width="40" height="40" as="geometry" />
        </mxCell>
        <mxCell id="UaQPZbpZhwbbAl6UrSpT-49" value="óraadó" style="ellipse;whiteSpace=wrap;html=1;" vertex="1" parent="1">
          <mxGeometry x="840" y="585" width="100" height="70" as="geometry" />
        </mxCell>
        <mxCell id="UaQPZbpZhwbbAl6UrSpT-50" value="" style="endArrow=none;html=1;rounded=0;exitX=0.5;exitY=1;exitDx=0;exitDy=0;entryX=0.5;entryY=0;entryDx=0;entryDy=0;" edge="1" parent="1" source="UaQPZbpZhwbbAl6UrSpT-49" target="UaQPZbpZhwbbAl6UrSpT-51">
          <mxGeometry width="50" height="50" relative="1" as="geometry">
            <mxPoint x="1180" y="765" as="sourcePoint" />
            <mxPoint x="930" y="705" as="targetPoint" />
          </mxGeometry>
        </mxCell>
        <mxCell id="UaQPZbpZhwbbAl6UrSpT-51" value="" style="whiteSpace=wrap;html=1;aspect=fixed;" vertex="1" parent="1">
          <mxGeometry x="870" y="685" width="40" height="40" as="geometry" />
        </mxCell>
        <mxCell id="UaQPZbpZhwbbAl6UrSpT-52" value="" style="endArrow=none;html=1;rounded=0;entryX=0.5;entryY=1;entryDx=0;entryDy=0;exitX=0.5;exitY=0;exitDx=0;exitDy=0;" edge="1" parent="1" source="UaQPZbpZhwbbAl6UrSpT-37" target="UaQPZbpZhwbbAl6UrSpT-20">
          <mxGeometry width="50" height="50" relative="1" as="geometry">
            <mxPoint x="390" y="440" as="sourcePoint" />
            <mxPoint x="440" y="390" as="targetPoint" />
          </mxGeometry>
        </mxCell>
        <mxCell id="UaQPZbpZhwbbAl6UrSpT-53" value="" style="endArrow=none;html=1;rounded=0;entryX=0.5;entryY=0;entryDx=0;entryDy=0;exitX=0.5;exitY=1;exitDx=0;exitDy=0;" edge="1" parent="1" source="UaQPZbpZhwbbAl6UrSpT-20" target="UaQPZbpZhwbbAl6UrSpT-40">
          <mxGeometry width="50" height="50" relative="1" as="geometry">
            <mxPoint x="390" y="440" as="sourcePoint" />
            <mxPoint x="440" y="390" as="targetPoint" />
          </mxGeometry>
        </mxCell>
        <mxCell id="UaQPZbpZhwbbAl6UrSpT-54" value="" style="endArrow=none;html=1;rounded=0;entryX=0.5;entryY=0;entryDx=0;entryDy=0;exitX=0.5;exitY=1;exitDx=0;exitDy=0;" edge="1" parent="1" source="UaQPZbpZhwbbAl6UrSpT-20" target="UaQPZbpZhwbbAl6UrSpT-43">
          <mxGeometry width="50" height="50" relative="1" as="geometry">
            <mxPoint x="390" y="440" as="sourcePoint" />
            <mxPoint x="440" y="390" as="targetPoint" />
          </mxGeometry>
        </mxCell>
        <mxCell id="UaQPZbpZhwbbAl6UrSpT-55" value="" style="endArrow=none;html=1;rounded=0;entryX=0.5;entryY=0;entryDx=0;entryDy=0;exitX=0.5;exitY=1;exitDx=0;exitDy=0;" edge="1" parent="1" source="UaQPZbpZhwbbAl6UrSpT-20" target="UaQPZbpZhwbbAl6UrSpT-46">
          <mxGeometry width="50" height="50" relative="1" as="geometry">
            <mxPoint x="390" y="440" as="sourcePoint" />
            <mxPoint x="440" y="390" as="targetPoint" />
          </mxGeometry>
        </mxCell>
        <mxCell id="UaQPZbpZhwbbAl6UrSpT-56" value="" style="endArrow=none;html=1;rounded=0;entryX=0.5;entryY=0;entryDx=0;entryDy=0;exitX=0.5;exitY=1;exitDx=0;exitDy=0;" edge="1" parent="1" source="UaQPZbpZhwbbAl6UrSpT-20" target="UaQPZbpZhwbbAl6UrSpT-49">
          <mxGeometry width="50" height="50" relative="1" as="geometry">
            <mxPoint x="390" y="440" as="sourcePoint" />
            <mxPoint x="440" y="390" as="targetPoint" />
          </mxGeometry>
        </mxCell>
      </root>
    </mxGraphModel>
  </diagram>
</mxfile>
